<svg xmlns="http://www.w3.org/2000/svg"  viewBox="0 0 64 64" width="64px" height="64px"><path fill="#72caaf" d="M42 5L11.66 58.44 1.09 41 21.76 5 42 5z"/><path fill="#5dbc9d" d="M27 7L4.5 46.62 1.09 41 21.76 5 27 7z"/><path fill="#f6d397" d="M22.09 5L42.33 41 63 41 42.33 5 22.09 5z"/><path fill="#f5c872" d="M22.09 5L45.41 46.05 51 41 30.33 5 22.09 5z"/><path fill="#85cbf8" d="M63 41L22 41 12 59 52 59 63 41z"/><path fill="#7bbeeb" d="M52 59L11 59 14 52 56 52 52 59z"/><path fill="#8d6c9f" d="M63.3,39.51l-19.52-34A3,3,0,0,0,41.17,4H22.83a3,3,0,0,0-2.6,1.51L.7,39.51a3,3,0,0,0,0,3l9.18,16A3,3,0,0,0,12.49,60h39a3,3,0,0,0,2.6-1.51l9.18-16A3,3,0,0,0,63.3,39.51ZM5.71,47.2a1,1,0,0,0,.48-.42,1,1,0,0,0-.37-1.37l-1.71-1L2.44,41.5a1,1,0,0,1,0-1L21.67,7l1.56,2.72a1,1,0,0,0-.51.42,1,1,0,0,0,.37,1.37l1.73,1h0l6,10.48L11.33,57ZM40.61,40H23.39L32,25Zm21,1.5-9.18,16a1,1,0,0,1-.87.5H13.06l9.18-16H50a1,1,0,0,0,0-2H42.91L23.39,6H41.17a1,1,0,0,1,.87.5l19.52,34A1,1,0,0,1,61.56,41.5Z"/><path fill="#8d6c9f" d="M58 40H54a1 1 0 0 0 0 2h4a1 1 0 0 0 0-2zM13.08 28.84l1.73 1a1 1 0 1 0 1-1.73l-1.73-1a1 1 0 1 0-1 1.73zM15.58 24.51l1.73 1a1 1 0 1 0 1-1.73l-1.73-1a1 1 0 1 0-1 1.73zM18.08 20.18l1.73 1a1 1 0 1 0 1-1.73l-1.73-1a1 1 0 1 0-1 1.73zM20.58 15.85l1.73 1a1 1 0 1 0 1-1.73l-1.73-1a1 1 0 1 0-1 1.73zM8.33 41.09l-1.73-1a1 1 0 1 0-1 1.73l1.73 1a1 1 0 0 0 1-1.73zM10.83 36.76l-1.73-1a1 1 0 0 0-1 1.73l1.73 1a1 1 0 1 0 1-1.73zM10.6 33.16l1.73 1a1 1 0 0 0 1-1.73l-1.73-1a1 1 0 1 0-1 1.73z"/></svg>