<svg xmlns="http://www.w3.org/2000/svg"  viewBox="0 0 64 64" width="64px" height="64px"><path fill="#6e91ce" d="M47.15,35.87C45.96,37.73,43.66,39,41,39s-4.96-1.27-6.15-3.13C36.1,35.51,37,34.36,37,33	c0-1.63,1.83-3,4-3s4,1.37,4,3C45,34.36,45.9,35.51,47.15,35.87z"/><path fill="#f9e3ae" d="M55.3,21.58c-0.13-0.16-0.29-0.32-0.46-0.45l-0.52-0.4c-0.35-0.29-0.7-0.57-1.07-0.83L34.84,5.63	c-1.31-1.02-3.2-0.78-4.21,0.53c-1.02,1.31-0.78,3.2,0.53,4.21L38.43,16H14c-1.66,0-3,1.34-3,3c0,1.66,1.34,3,3,3h12.23	c-0.12,0.07-0.25,0.14-0.36,0.22l-21.5,16.5c-1.53,1.18-1.82,3.38-0.65,4.91C4.41,44.53,5.45,45,6.5,45c0.75,0,1.5-0.24,2.13-0.72	l12.38-9.51c0.01,0.8,0.08,1.6,0.21,2.37C22.6,46.11,30.92,53,41,53s18.41-6.89,19.79-15.86C60.93,36.28,61,35.4,61,34.5	C61,29.47,58.82,24.92,55.3,21.58z M41,22c6.63,0,12,4.92,12,11c0,6.08-5.37,11-12,11s-12-4.92-12-11C29,26.92,34.37,22,41,22z"/><path fill="#7bbeeb" d="M48,33c0,1.04-0.31,2.02-0.85,2.87C45.9,35.51,45,34.36,45,33c0-1.63-1.83-3-4-3s-4,1.37-4,3	c0,1.36-0.9,2.51-2.15,2.87C34.31,35.02,34,34.04,34,33c0-3.31,3.13-6,7-6S48,29.69,48,33z"/><path fill="#8d6c9f" d="M41,40c-4.411,0-8-3.141-8-7s3.589-7,8-7s8,3.141,8,7S45.411,40,41,40z M41,28c-3.309,0-6,2.243-6,5	s2.691,5,6,5s6-2.243,6-5S44.309,28,41,28z"/><path fill="#8d6c9f" d="M36.764,60.674c-0.05,0-0.1-0.004-0.15-0.012c-0.547-0.082-0.922-0.592-0.839-1.138l0.3-1.978 c0.082-0.548,0.593-0.92,1.138-0.839c0.547,0.082,0.922,0.592,0.839,1.138l-0.3,1.978C37.677,60.319,37.25,60.674,36.764,60.674z"/><path fill="#8d6c9f" d="M31.608,59.389c-0.111,0-0.224-0.019-0.334-0.058c-0.521-0.185-0.793-0.756-0.608-1.276 l0.668-1.885c0.185-0.521,0.758-0.794,1.276-0.608c0.521,0.185,0.793,0.756,0.608,1.276l-0.668,1.885 C32.405,59.133,32.02,59.389,31.608,59.389z"/><path fill="#8d6c9f" d="M26.795,57.135c-0.173,0-0.348-0.045-0.507-0.139c-0.476-0.281-0.634-0.894-0.354-1.369 l1.017-1.723c0.281-0.476,0.896-0.632,1.369-0.354c0.476,0.281,0.634,0.894,0.354,1.369l-1.017,1.723 C27.471,56.959,27.137,57.135,26.795,57.135z"/><path fill="#8d6c9f" d="M22.505,53.998c-0.237,0-0.476-0.084-0.666-0.254c-0.412-0.368-0.448-1-0.08-1.412l1.332-1.492 c0.368-0.413,1.001-0.446,1.412-0.08c0.412,0.368,0.448,1,0.08,1.412l-1.332,1.492C23.054,53.886,22.779,53.998,22.505,53.998z"/><path fill="#8d6c9f" d="M18.914,50.071c-0.306,0-0.607-0.14-0.804-0.403c-0.329-0.443-0.237-1.07,0.206-1.399l1.605-1.192 c0.443-0.329,1.07-0.236,1.399,0.206c0.329,0.443,0.237,1.07-0.206,1.399l-1.605,1.192C19.33,50.007,19.121,50.071,18.914,50.071 z"/><path fill="#efc88e" d="M60.79,37.14C59.41,46.11,51.08,53,41,53s-18.4-6.89-19.78-15.86c1.93-0.53,4,0.46,4.77,2.36	C28.29,45.18,34.33,49,41,49c6.68,0,12.72-3.82,15.02-9.5C56.79,37.6,58.87,36.61,60.79,37.14z"/><path fill="#8d6c9f" d="M41,54c-10.71,0-19.665-7.601-20.854-17.301l-10.907,8.37C8.449,45.678,7.502,46,6.502,46	c-1.412,0-2.715-0.642-3.572-1.761c-1.51-1.968-1.138-4.798,0.831-6.309L23.215,23H14c-2.206,0-4-1.794-4-4s1.794-4,4-4h21.502	l-4.952-3.839c-0.845-0.654-1.384-1.598-1.519-2.658c-0.134-1.061,0.152-2.109,0.808-2.954c1.352-1.741,3.871-2.063,5.611-0.71	l18.41,14.268c0.359,0.257,0.734,0.551,1.102,0.854l0.488,0.377c0.207,0.16,0.397,0.343,0.581,0.557C59.881,24.56,62,29.39,62,34.5	C62,45.252,52.579,54,41,54z M21.015,33.772c0.148,0,0.297,0.033,0.436,0.1c0.34,0.164,0.559,0.507,0.564,0.885	C22.164,44.265,30.682,52,41,52c10.477,0,19-7.851,19-17.5c0-4.573-1.912-8.903-5.385-12.191c-0.028-0.027-0.056-0.057-0.081-0.086	c-0.101-0.121-0.201-0.221-0.308-0.303l-0.516-0.398c-0.356-0.296-0.694-0.561-1.046-0.813L34.226,6.419	c-0.873-0.674-2.13-0.517-2.807,0.356c-0.327,0.422-0.471,0.946-0.403,1.476c0.067,0.53,0.337,1.003,0.759,1.33l7.263,5.629	c0.338,0.262,0.473,0.709,0.334,1.114C39.232,16.729,38.853,17,38.425,17H14c-1.103,0-2,0.897-2,2s0.897,2,2,2h12.23	c0.45,0,0.846,0.302,0.965,0.736c0.118,0.435-0.067,0.895-0.455,1.124l-0.105,0.062c-0.054,0.03-0.108,0.059-0.159,0.097	L4.978,39.517c-1.093,0.84-1.3,2.412-0.461,3.506C5.33,44.083,6.96,44.3,8.021,43.483l12.385-9.504	C20.584,33.843,20.799,33.772,21.015,33.772z M41,45c-7.168,0-13-5.383-13-12s5.832-12,13-12s13,5.383,13,12S48.168,45,41,45z M41,23c-6.065,0-11,4.486-11,10s4.935,10,11,10s11-4.486,11-10S47.065,23,41,23z"/></svg>